<svg width="297" height="98" viewBox="0 0 297 98" fill="none" xmlns="http://www.w3.org/2000/svg">
<path d="M0.17058 85.4691C2.10383 83.9265 2.98516 83.2124 2.81458 83.3266C8.38687 78.699 12.7651 74.8997 15.9493 71.9288C19.1903 68.958 21.9196 65.8443 24.1371 62.5878C26.3547 59.3313 27.4634 56.1605 27.4634 53.0754C27.4634 50.733 26.9233 48.9048 25.8429 47.5907C24.7626 46.2767 23.1421 45.6197 20.9814 45.6197C18.8207 45.6197 17.1149 46.4481 15.864 48.1049C14.6699 49.7046 14.0729 51.9899 14.0729 54.9607H0C0.11372 50.1045 1.1372 46.0482 3.07045 42.7917C5.06055 39.5351 7.64769 37.1356 10.8319 35.5931C14.0729 34.0505 17.6551 33.2792 21.5784 33.2792C28.3448 33.2792 33.4338 35.0217 36.8454 38.5068C40.3138 41.9918 42.0481 46.5338 42.0481 52.1327C42.0481 58.2458 39.9727 63.9304 35.8219 69.1865C31.6711 74.3855 26.3831 79.4702 19.9579 84.4407H42.9863V96.3527H0.17058V85.4691Z" fill="white"/>
<path d="M65.4422 57.3603C67.148 54.7322 69.2803 52.6754 71.839 51.19C74.3977 49.6475 77.2407 48.8762 80.368 48.8762V64.3875H76.3594C72.7203 64.3875 69.991 65.1873 68.1715 66.787C66.352 68.3295 65.4422 71.0719 65.4422 75.014V97.2096H50.8576V49.3904H65.4422V57.3603Z" fill="white"/>
<path d="M94.6741 44.4199C92.1154 44.4199 90.0116 43.6772 88.3626 42.1918C86.7706 40.6492 85.9745 38.7639 85.9745 36.5357C85.9745 34.2505 86.7706 32.3651 88.3626 30.8797C90.0116 29.3371 92.1154 28.5659 94.6741 28.5659C97.176 28.5659 99.2229 29.3371 100.815 30.8797C102.464 32.3651 103.288 34.2505 103.288 36.5357C103.288 38.7639 102.464 40.6492 100.815 42.1918C99.2229 43.6772 97.176 44.4199 94.6741 44.4199ZM101.924 49.3904V97.2096H87.3392V49.3904H101.924Z" fill="white"/>
<path d="M131.854 97.8952C127.703 97.8952 124.007 97.1811 120.766 95.7528C117.525 94.3245 114.967 92.382 113.09 89.9253C111.214 87.4115 110.162 84.6121 109.934 81.527H124.348C124.519 83.1838 125.287 84.5264 126.651 85.5548C128.016 86.5831 129.693 87.0973 131.683 87.0973C133.503 87.0973 134.896 86.7545 135.863 86.0689C136.886 85.3262 137.398 84.3836 137.398 83.2409C137.398 81.8698 136.687 80.87 135.266 80.2415C133.844 79.5559 131.541 78.8132 128.357 78.0134C124.945 77.2135 122.102 76.3851 119.828 75.5281C117.554 74.614 115.592 73.2143 113.943 71.329C112.294 69.3865 111.47 66.787 111.47 63.5305C111.47 60.7882 112.209 58.3029 113.687 56.0748C115.222 53.7895 117.44 51.9899 120.34 50.6758C123.297 49.3618 126.793 48.7048 130.83 48.7048C136.801 48.7048 141.492 50.1902 144.903 53.1611C148.372 56.1319 150.362 60.074 150.874 64.9873H137.398C137.17 63.3305 136.431 62.0165 135.18 61.0452C133.986 60.074 132.394 59.5884 130.404 59.5884C128.698 59.5884 127.39 59.9312 126.481 60.6168C125.571 61.2452 125.116 62.1307 125.116 63.2734C125.116 64.6445 125.827 65.6729 127.248 66.3585C128.727 67.0441 131.001 67.7297 134.072 68.4152C137.597 69.3293 140.468 70.2435 142.686 71.1576C144.903 72.0145 146.837 73.4428 148.486 75.4424C150.191 77.3849 151.073 80.013 151.13 83.3266C151.13 86.1261 150.334 88.6399 148.741 90.868C147.206 93.039 144.96 94.753 142.004 96.0099C139.104 97.2668 135.72 97.8952 131.854 97.8952Z" fill="white"/>
<path d="M220.779 48.8762C226.692 48.8762 231.383 50.6758 234.852 54.2751C238.377 57.8744 240.14 62.8735 240.14 69.2722V97.2096H225.641V71.2433C225.641 68.1581 224.816 65.7872 223.167 64.1304C221.575 62.4164 219.357 61.5594 216.514 61.5594C213.671 61.5594 211.426 62.4164 209.777 64.1304C208.184 65.7872 207.388 68.1581 207.388 71.2433V97.2096H192.889V71.2433C192.889 68.1581 192.065 65.7872 190.416 64.1304C188.824 62.4164 186.606 61.5594 183.763 61.5594C180.92 61.5594 178.674 62.4164 177.025 64.1304C175.433 65.7872 174.637 68.1581 174.637 71.2433V97.2096H160.052V49.3904H174.637V55.3892C176.115 53.3896 178.049 51.8185 180.437 50.6758C182.825 49.4761 185.526 48.8762 188.539 48.8762C192.122 48.8762 195.306 49.6475 198.092 51.19C200.935 52.7326 203.152 54.9322 204.744 57.7887C206.393 55.1607 208.639 53.0182 211.482 51.3614C214.325 49.7046 217.424 48.8762 220.779 48.8762Z" fill="white"/>
<path d="M244.75 22.1743C243.514 21.7601 243.502 21.0911 244.774 20.665L289.994 5.52036C291.248 5.10139 291.966 5.80602 291.615 7.03911L278.693 52.4731C278.338 53.7324 277.615 53.7752 277.085 52.5802L268.57 33.3268L282.785 14.2829L263.832 28.5659L244.75 22.1743Z" fill="#5243C2"/>
</svg>
